<svg xmlns="http://www.w3.org/2000/svg" viewBox="0 0 100 100" width="100" height="100">
  <title>Equipo — Productos Digitales</title>
  <g transform="rotate(45 50 50)">
      <rect x="40" y="3" width="20" height="10" rx="3.5" fill="none" stroke="#12171E" stroke-width="3.4"/>
      <path d="M43 13 L45 27 M57 13 L55 27" fill="none" stroke="#12171E" stroke-width="3.4" stroke-linecap="round" stroke-linejoin="round"/></g><g transform="rotate(135 50 50)">
      <rect x="40" y="3" width="20" height="10" rx="3.5" fill="none" stroke="#12171E" stroke-width="3.4"/>
      <path d="M43 13 L45 27 M57 13 L55 27" fill="none" stroke="#12171E" stroke-width="3.4" stroke-linecap="round" stroke-linejoin="round"/></g><g transform="rotate(225 50 50)">
      <rect x="40" y="3" width="20" height="10" rx="3.5" fill="none" stroke="#12171E" stroke-width="3.4"/>
      <path d="M43 13 L45 27 M57 13 L55 27" fill="none" stroke="#12171E" stroke-width="3.4" stroke-linecap="round" stroke-linejoin="round"/></g><g transform="rotate(315 50 50)">
      <rect x="40" y="3" width="20" height="10" rx="3.5" fill="none" stroke="#12171E" stroke-width="3.4"/>
      <path d="M43 13 L45 27 M57 13 L55 27" fill="none" stroke="#12171E" stroke-width="3.4" stroke-linecap="round" stroke-linejoin="round"/></g><rect x="33" y="40" width="34" height="20" rx="9" transform="rotate(-32 50 50)" fill="none" stroke="#12171E" stroke-width="3.2"/>
       <rect x="33" y="40" width="34" height="20" rx="9" transform="rotate(32 50 50)" fill="none" stroke="#12171E" stroke-width="3.2"/><path d="M41 47 L57 39 M42 53 L60 45 M45 58 L62 51" fill="none" stroke="#12171E" stroke-width="2.6" stroke-linecap="round" stroke-linejoin="round"/>
</svg>
